<svg xmlns="http://www.w3.org/2000/svg" viewBox="0 0 3000 1666" width="3000" height="1666"><g transform="translate(523.3333333333334 270.0) rotate(0.0 1011.6666666666667 635.0) scale(1.9103477273471157 1.9106306284620778)"><svg width="1059.144" height="664.702" viewBox="0 0 1059.144 664.702"><path d="M1.291 1.256h1056.582v662.16H1.291z" fill="#fff"/><path d="M1057.873 664.086H1.291a.67.67 0 0 1-.67-.67V1.256c0-.37.3-.67.67-.67h1056.582c.37 0 .67.3.67.67v662.16c0 .37-.3.67-.67.67zM1.961 662.746h1055.242V1.926H1.961z"/><path d="M.671 555.917h1057.727v108.114H.671z" fill="#eaeaea"/><path d="M1059.068 664.701H0V555.247h1059.067v109.454zM1.341 663.361h1056.387V556.587H1.341z" fill="#eaeaea"/><path d="M.725.671h1057.748V47.1H.725z" fill="#d0e4ff"/><path d="M1059.143 47.77H.055V0h1059.088v47.769zM1.395 46.43h1056.409V1.341H1.395z" fill="#d0e4ff"/><ellipse cx="38.242" cy="24.024" fill="#ed5a25" rx="12.516" ry="12.482"/><ellipse cx="73.274" cy="24.024" fill="#fff" rx="12.516" ry="12.482"/><ellipse cx="108.306" cy="24.024" fill="#0a4ed0" rx="12.516" ry="12.482"/><g fill="#b3b2b2"><path d="m445.484 625.45-9.148-6.046a3.576 3.576 0 0 0-3.642-.034l-3.923 2.285c-.525.305-1.031.363-1.44.287a2.15 2.15 0 0 1-.9-.398c-2.156-1.58-4.675-3.671-7.361-6.352-2.683-2.681-4.776-5.199-6.357-7.355-.018-.025-.304-.382-.399-.9-.073-.408-.018-.912.288-1.439l2.287-3.92a3.56 3.56 0 0 0-.034-3.638l-6.052-9.14a2.425 2.425 0 0 0-3.4-.658s-2.866 1.96-3.812 2.626c-1.516 1.066-2.004 2.687-2.005 4.947-.004 3.179 2.737 13.138 14.284 24.674 11.547 11.538 21.513 14.275 24.695 14.271 2.261-.002 3.883-.492 4.951-2.004.666-.945 2.628-3.809 2.628-3.809a2.418 2.418 0 0 0-.613-3.366l-.046-.031zm67.258-40.407c5.82 0 10.538 4.714 10.538 10.529v15.368c0 5.815-4.718 10.529-10.538 10.529s-10.538-4.714-10.538-10.529v-15.368c0-5.815 4.718-10.529 10.538-10.529zm11.079 53.001h-22.157a1.696 1.696 0 1 1 0-3.392h22.157a1.696 1.696 0 1 1 0 3.392z"/><path d="M511.044 627.38h3.395v8.193h-3.395z"/><path d="M529.675 611.556c-.825 0-1.517.597-1.665 1.408-1.315 7.221-7.663 12.718-15.264 12.718s-13.95-5.49-15.27-12.705a1.713 1.713 0 0 0-1.68-1.421c-1.046 0-1.874.934-1.691 1.964 1.282 7.251 6.815 13.373 14.272 15.062 10.189 2.388 20.386-3.929 22.776-14.109.075-.319.142-.641.2-.964.182-1.023-.637-1.954-1.677-1.954zm59.726-20.662h38.411v40.584h-38.411a7.067 7.067 0 0 1-7.067-7.061v-26.462c0-3.897 3.166-7.061 7.067-7.061z"/><path d="m619.404 611.556 13.74-7.926 13.74-7.926v31.705l-13.74-7.926-13.74-7.926z"/></g></svg></g><g transform="translate(2166.666666666667 1026.6666666666667) rotate(0.0 336.6666666666665 257.5) scale(1.9102196752626543 1.9093096455357375)"><svg width="352.49" height="269.731" viewBox="0 0 352.49 269.731"><path d="m.848 26.695 327.616.02-.015 242.245-327.616-.02.015-242.245z" fill="#fff"/><path d="M328.448 269.61.832 269.59a.647.647 0 0 1-.649-.649L.198 26.696a.647.647 0 0 1 .649-.649l327.616.021a.65.65 0 0 1 .65.65l-.015 242.245a.65.65 0 0 1-.65.65zM1.483 268.291l326.316.02.015-240.945-326.316-.021-.015 240.945z"/><path d="M164.5 171.085c-2.473 0-4.945-.885-6.917-2.657L.413 27.179a.65.65 0 0 1 .869-.967l157.17 141.249a9.035 9.035 0 0 0 12.088.006L328.029 26.232a.65.65 0 1 1 .868.968L171.408 168.435a10.324 10.324 0 0 1-6.909 2.649z"/><path d="M.833 268.94 148.59 159.438" fill="#fff"/><path d="M.833 269.59a.65.65 0 0 1-.388-1.173l147.757-109.502a.65.65 0 0 1 .775 1.044L1.22 269.462a.65.65 0 0 1-.387.128z"/><path d="M327.34 268.141 180.485 159.473" fill="#fff"/><path d="M327.34 268.791a.653.653 0 0 1-.386-.127L180.099 159.997a.65.65 0 0 1 .773-1.045l146.855 108.667a.65.65 0 0 1-.387 1.172z"/><circle cx="323.817" cy="29.004" fill="#ee5a25" r="28.669" transform="matrix(.5255162 -.85078359 .85078359 .5255162 128.968 289.258)"/></svg></g><g transform="translate(1523.3333333333335 125.0) rotate(0.0 235.83333333333326 155.0) scale(1.666666666666666 1.6666666666666667)"><svg width="283" height="186" viewBox="0 0 283 186"><clipPath id="a"><rect width="283" height="186" fill="#EBEBEB" rx="25" ry="25" stroke-linejoin="round" stroke="#C00" stroke-width="0"/></clipPath><rect width="283" height="186" fill="#EBEBEB" rx="25" ry="25" clip-path="url(#a)"/></svg></g><g transform="translate(2593.3333333333335 651.6666666666667) rotate(0.0 130.0 130.83333333333331) scale(0.708709494526582 0.7064320412376328)"><svg width="366.864" height="370.406" viewBox="0 0 366.864 370.406"><path d="M318.462 221.474a140.273 140.273 0 0 0 3.085-14.527c.786-4.96 1.295-9.902 1.53-14.805l43.786-34.73-28.777-74.739-55.72 3.73a138.301 138.301 0 0 0-23.111-18.7l-8.181-55.243L171.952 0l-24.614 50.104c-9.653 2.566-18.953 6.181-27.75 10.689L67.65 40.248l-50.349 62.3 31.098 46.394a139.99 139.99 0 0 0-3.085 14.527 136.082 136.082 0 0 0-1.527 14.793L0 212.993l28.783 74.753 55.72-3.73a139.384 139.384 0 0 0 23.102 18.688l8.179 55.251 79.123 12.451 24.614-50.104a138.41 138.41 0 0 0 27.73-10.694l51.955 20.562 50.349-62.3-31.098-46.394.004-.002zM173.131 250.71c-36.181-5.686-60.902-39.631-55.207-75.81 5.694-36.179 39.637-60.888 75.819-55.205 36.179 5.695 60.888 39.637 55.193 75.816-5.694 36.179-39.637 60.888-75.807 55.195z" fill="#EBEBEB"/></svg></g><g transform="translate(1930.0 175.0) rotate(0.0 -174.16666666666663 129.16666666666669) scale(-0.5616848179549941 0.5581627155948503)"><svg width="620.158" height="462.828" viewBox="0 0 620.158 462.828"><path d="M192.762 126.038a97.087 97.087 0 0 0-.675 5.306c-6.775 62.835 37.072 120.446 100.15 130.083 63.113 9.64 122.16-32.251 134.453-94.244.37-1.747.671-3.501.94-5.263 8.896-58.227-26.069-112.984-80.216-130.778a120.108 120.108 0 0 0-19.291-4.615 120.088 120.088 0 0 0-19.791-1.356c-56.956.824-106.674 42.646-115.57 100.873v-.005z" fill="#ffbd9c"/><path d="M308.333 25.169a144.489 144.489 0 0 0 11.495 55.661c18.432 43.423 57.518 76.976 106.865 86.351.37-1.747.671-3.501.94-5.263 8.896-58.227-26.069-112.984-80.216-130.778a120.108 120.108 0 0 0-19.291-4.615 120.088 120.088 0 0 0-19.791-1.356h-.003z"/><path d="M192.762 126.038a97.087 97.087 0 0 0-.675 5.306c49.893 5.786 97.217-14.568 127.738-50.512a144.51 144.51 0 0 0 27.591-49.692 120.081 120.081 0 0 0-19.293-4.615 120.088 120.088 0 0 0-19.791-1.356c-56.956.824-106.674 42.646-115.57 100.873z"/><path d="M0 462.828h620.158c-65.19-102.406-179.7-170.353-310.079-170.353S65.189 360.421 0 462.828z" fill="#F05A25"/><g fill="gray"><path d="M176.327 176.457c-10.412-1.794-17.397-11.688-15.604-22.1l12.14-70.464c1.794-10.412 11.688-17.397 22.1-15.604 10.412 1.794 17.397 11.688 15.604 22.1l-12.14 70.464c-1.794 10.412-11.688 17.397-22.1 15.604zm246.028 42.385c-10.412-1.794-17.397-11.688-15.604-22.1l12.14-70.464c1.794-10.412 11.688-17.397 22.1-15.604 10.412 1.794 17.397 11.688 15.604 22.1l-12.14 70.464c-1.794 10.412-11.688 17.398-22.1 15.604z"/><path d="M333.805 2.022C265.329-9.776 199.764 31.178 178.839 95.371l13.524 2.33c19.533-56.823 78.068-92.836 139.141-82.315 61.072 10.522 104.183 64.046 103.574 124.131l13.524 2.33c1.76-67.494-46.334-128.029-114.797-139.825zm-51.36 214.852-89.954-15.497c-6.2-1.069-11.612-4.486-15.241-9.625s-5.039-11.384-3.971-17.583l2.887-16.756 6.681 1.151-2.887 16.756c-1.57 9.114 4.567 17.805 13.681 19.376l89.954 15.497-1.151 6.681z"/><path d="m271.936 224.955-20.313-3.5c-7.66-1.319-12.8-8.599-11.481-16.259s8.599-12.8 16.259-11.481l20.313 3.5c7.66 1.319 12.8 8.599 11.481 16.259s-8.599 12.8-16.259 11.481z"/></g></svg></g><g transform="translate(1885.0 63.333333333333336) rotate(0.0 175.0 86.66666666666667) scale(2.1253081696846046 2.113898475960503)"><svg width="164.682" height="81.997" viewBox="0 0 164.682 81.997"><g><path fill="#FFF" stroke="#000" stroke-width="1.341" stroke-linecap="round" stroke-linejoin="round" stroke-miterlimit="10" d="M-794.265-160.536c-8.472 0-15.35 6.878-15.35 15.35v41.013h99.035c8.472 0 15.35-6.878 15.35-15.35v-25.664c0-8.472-6.878-15.35-15.35-15.35h-83.685v.001z" transform="translate(1156.8 230.39999999999998) rotate(0.0 396.6 196.2) scale(1.4280004752800373 1.431014802469631)"/><g><path fill="#B3B2B2" d="M135.675 26.326H29.352V24.85h106.323v1.476zm.446 15.41h-33.652v-1.475h33.652v1.475zm-45.408 0h-61.36v-1.475h61.36v1.475zm45.41 15.412H73.52v-1.475h62.602v1.475z"/></g></g></svg></g><g transform="translate(586.6666666666667 571.6666666666667) rotate(0.0 135.0 127.5) scale(3.0152100596341542 2.9731021697816225)"><svg width="89.546" height="85.769" viewBox="0 0 89.546 85.769"><path d="m89.546 6.476-6.574 30.097c-3.979-1.905-11.796-5.367-23.617-5.367-9.842 0-24.517 2.582-24.517 12.474s17.725 9.887 24.517 9.887c9.127 0 25.786-5.152 29.521-7.52-.025 7.52 0 32.405 0 32.405s-13.742 7.317-37.747 7.317C23.1 85.769 0 68.585 0 43.68 0 15.048 25.269 0 53.897 0 73.37 0 89.546 6.476 89.546 6.476z" fill="#0a4ed0" fill-rule="evenodd"/></svg></g><g transform="translate(875.0 571.6666666666667) rotate(0.0 149.16666666666674 128.33333333333331) scale(3.0561303584721413 3.0270865274993115)"><svg width="97.618" height="84.79" viewBox="0 0 97.618 84.79"><path d="M0 42.048C0 68.094 17.134 84.79 49.472 84.79c28.913 0 48.146-14.564 48.146-42.742S78.385 0 49.472 0C20.824 0 0 13.395 0 42.048zm31.38.024c0 10.66 7.767 16.316 18.092 16.316s16.766-5.557 16.766-16.316-6.441-16.279-16.766-16.279c-10.23.001-18.092 5.624-18.092 16.279z" fill="#0a4ed0" fill-rule="evenodd"/></svg></g><g transform="translate(1193.3333333333335 576.6666666666667) rotate(0.0 124.16666666666663 122.5) scale(2.9137187264115885 2.934975322248311)"><svg width="85.229" height="83.476" viewBox="0 0 85.229 83.476"><path d="M52.857 0v40.499L32.372.005V0H0v83.476h32.372V42.984l20.484 40.492h32.373V0z" fill="#0a4ed0" fill-rule="evenodd"/></svg></g><g transform="translate(1461.6666666666667 576.6666666666667) rotate(0.0 122.5 122.5) scale(2.9350104821802936 2.934975322248311)"><svg width="83.475" height="83.476" viewBox="0 0 83.475 83.476"><path d="M83.475 30.033 78.492 0H4.983L0 30.033h25.55v53.443h32.372V30.033z" fill="#0a4ed0" fill-rule="evenodd"/></svg></g><g transform="translate(1693.3333333333335 576.6666666666667) rotate(0.0 135.83333333333326 122.5) scale(2.949212035680036 2.935115967030861)"><svg width="92.115" height="83.472" viewBox="0 0 92.115 83.472"><path d="M59.355 83.472h32.76L66.742 0 49.027.001H25.372L0 83.472h32.76l2.449-10.816h21.697zm-19.056-33.29 5.759-25.432 5.759 25.432z" fill="#0a4ed0" fill-rule="evenodd"/></svg></g><g transform="translate(1961.6666666666667 573.3333333333334) rotate(0.0 135.0000000000001 127.5) scale(3.015210059634157 2.9731021697816225)"><svg width="89.546" height="85.769" viewBox="0 0 89.546 85.769"><path d="m89.546 6.476-6.574 30.097c-3.979-1.905-11.796-5.367-23.617-5.367-9.842 0-24.517 2.582-24.517 12.474s17.725 9.887 24.517 9.887c9.127 0 25.786-5.152 29.521-7.52-.025 7.52 0 32.405 0 32.405s-13.742 7.317-37.747 7.317C23.1 85.769 0 68.585 0 43.68 0 15.048 25.269 0 53.897 0 73.37 0 89.546 6.476 89.546 6.476z" fill="#0a4ed0" fill-rule="evenodd"/></svg></g><g transform="translate(2245.0 576.6666666666667) rotate(0.0 122.5 122.5) scale(2.9350104821802936 2.934975322248311)"><svg width="83.475" height="83.476" viewBox="0 0 83.475 83.476"><path d="M83.475 30.033 78.492 0H4.983L0 30.033h25.55v53.443h32.372V30.033z" fill="#0a4ed0" fill-rule="evenodd"/></svg></g><g transform="translate(1188.3333333333335 888.3333333333334) rotate(0.0 125.83333333333326 125.83333333333331) scale(3.021861466663463 2.9773876282642813)"><svg width="83.282" height="84.526" viewBox="0 0 83.282 84.526"><path d="M44.457 84.526h-5.301C10.805 84.526 0 66.053 0 41.672V0h32.372v43.874c0 6.867 3.76 11.693 9.267 11.693s9.271-4.826 9.271-11.693V0h32.372v41.672c0 19.481-6.9 35.19-24.133 40.718-4.251 1.363-9.131 2.107-14.692 2.136z" fill="#0a4ed0" fill-rule="evenodd"/></svg></g><g transform="translate(1461.6666666666667 881.6666666666667) rotate(0.0 125.0 129.16666666666663) scale(2.9226776403469805 2.9210671129303383)"><svg width="85.538" height="88.438" viewBox="0 0 85.538 88.438"><path d="m81.187 6.64-3.512 28.509c-6.14-4.201-23.352-9.598-35.14-9.598-4.954 0-7.776.299-7.776 2.354s2.487 2.663 7.776 2.885c13.312.56 43.444 5.921 42.998 27.131 0 22.756-21.989 30.517-40.49 30.517-19.753 0-35.586-5.343-42.457-8.175L0 42.711c6.131 9.245 31.26 19.575 45.043 19.575 3.38 0 6.474-.462 6.474-2.595 0-1.677-2.149-2.179-5.004-2.612C41.365 56.301.098 51.756.098 25.993.098 6.589 16.988 0 40.431 0c20.358.001 35.942 4.423 40.756 6.64z" fill="#0a4ed0" fill-rule="evenodd"/></svg></g><g transform="translate(1746.6666666666667 888.3333333333334) rotate(0.0 44.16666666666663 123.33333333333331) scale(2.730382459610944 2.794551380092975)"><svg width="32.352" height="88.267" viewBox="0 0 32.352 88.267"><g fill="#0a4ed0"><path d="M0 0h32.352v56.8H0zm0 68.857h32.352v19.41H0z"/></g></svg></g><g transform="translate(258.33333333333337 980.0) rotate(0.0 200.83333333333331 200.83333333333337) scale(1.6666666666666665 1.666666666666667)"><svg width="241" height="241" viewBox="0 0 241 241"><clipPath id="b"><circle cx="120.5" cy="120.5" fill="#FFF" r="120.5"/></clipPath><circle cx="120.5" cy="120.5" fill="#FFF" clip-path="url(#b)" r="120.5"/></svg></g><g transform="translate(118.33333333333334 838.3333333333334) rotate(-13.015977270184987 350.0 350.00000000000006) scale(0.5677992910620281 0.5677992910620281)"><svg width="1232.83" height="1232.83" viewBox="0 0 1232.83 1232.83"><path d="m1094.16 730.3 138.67-21.61-.05-184.92-138.7-21.53c-12.34-49.31-30.85-98.61-58.59-141.74l83.17-114.07L986.1 113.95l-114.01 80.17c-43.15-27.73-92.48-46.21-141.79-58.52L708.69 0 523.78.04l-21.53 138.7c-49.31 12.34-98.62 30.84-141.76 58.59l-114.06-83.18-132.48 132.56 80.16 114.02c-27.72 43.16-46.2 92.47-58.51 141.79L0 524.13l.04 184.92 138.7 21.53c12.34 49.31 30.84 98.62 58.59 141.76L114.16 986.4l132.56 132.48 114.01-80.16c43.16 27.73 92.47 46.2 141.79 58.51l21.62 135.6 184.91-.05 21.54-138.7c49.31-12.34 98.61-30.84 141.75-58.59l114.06 80.1 129.41-129.48-80.17-114.02c27.73-43.15 46.21-92.47 58.52-141.79zM616.41 945.22c-181.6 0-328.81-147.21-328.81-328.81 0-181.59 147.21-328.81 328.81-328.81 181.59 0 328.8 147.22 328.8 328.81 0 181.6-147.21 328.81-328.8 328.81z" fill="#d0e4ff"/></svg></g><g transform="translate(340.0 1090.0) rotate(0.0 126.66666666666669 210.83333333333337) scale(0.6685262251402807 0.6697608027387659)"><svg width="378.943" height="629.578" viewBox="0 0 378.943 629.578"><path d="m169.428 579.99-39.85-10.377 16.019-61.514 39.85 10.377z" fill="#ffbe9d"/><path d="M228.253 629.578 120.51 601.523l10.736-41.231c4.114 3.987 9.209 6.961 15.024 8.475 11.53 3.002 21.464-.593 28.584-10.653l53.508 46.568a12.187 12.187 0 0 1 3.137 4.236c4.172 9.458-3.246 20.66-3.246 20.66z" fill="gray"/><path d="M120.273 305.296v83.05l-42.54 1.45c-14.75.51-29.46-2.92-42.13-10.48-37.39-22.31-35.15-64.74-22.05-88.3l51.74 18.63c16.86-2 35.22-3.44 54.98-4.35z"/><path d="m304.245 362.362-35.662 20.59-31.784-55.05 35.662-20.59z" fill="#ffbe9d"/><path d="m378.943 368.954-95.663 42.92-20.58-39.107c5.697.608 8.687 1.149 14.202-1.239 10.934-4.735 17.974-14.094 17.389-26.405l69.407 4.149c1.698.094 3.431.528 5.08 1.406 9.112 4.882 10.165 18.276 10.165 18.276z" fill="gray"/><path d="m128.272 366.473-53.966-52.084 91.51-94.815c15.059-15.747 31.385-16.655 39.79-15.791 22.949 2.361 34.674 20.812 38.676 27.251l56.002 87.276-63.123 40.503-40.531-63.167z"/><path d="m193.645 552.195-72.112-20.612c18.498-64.714 23.311-92.928 24.065-105.212-10.4-7.37-27.026-13.091-44.48-19.097-18.399-6.331-39.252-13.507-58.385-24.643l37.73-64.819c12.768 7.432 28.452 12.829 45.057 18.543 27.32 9.401 55.57 19.121 77.165 40.219a59.348 59.348 0 0 1 17.632 37.177c2.173 24.459-5.555 64.568-26.672 138.444z"/><path d="M222.625 236.558s46.894-5.834 68.105-25.799c12.373-11.646 9.91-17.949 5.709-21.179-2.554-1.964-5.8-2.725-8.967-2.329-1.046.131-2.058.448-3.041.826-10.438 4.011-21.607 6.964-33.361 9.071-3.643 1.005-7.107-2.262-6.19-5.929l.041-.16c.982-3.675 5.194-10.001 7.741-13.608 1.796-2.544 1.412-6.151-1.086-8.01-1.282-.954-2.975-1.792-5.433-.715-.877.384-1.65.97-2.33 1.644l-33.69 33.321zM168.51 131.677s-1.069-47.243-18.79-70.362c-10.337-13.486-16.856-11.672-20.494-7.818-2.211 2.342-3.297 5.495-3.223 8.686.024 1.054.238 2.092.514 3.109 2.936 10.789 4.747 22.199 5.656 34.107.632 3.726 2.374 41.399 2.374 41.399z" fill="#ffbe9d"/><path d="m96.451 43.66 40.822-7.931 13.576 69.88-40.822 7.931z"/><g fill="#ee5a25"><path d="m179.537 254.025-63.73-12.784c7.291-36.345 6.866-77.536-1.261-122.427l63.96-11.58c9.593 52.99 9.94 102.377 1.031 146.791zM26.971 143.652s-41.905 72.646-21.247 193.971c0 0 40.322 41.551 124.823-73.624z"/><path d="M234.926 249.131c-.013.038-.038.063-.051.101-34.775 28.581-108.111 38.504-155.021 7.521-31.988-21.127-48.296-50.214-54.934-65.472-10.096-23.586-2.941-49.57 15.055-61.711 14.223-9.591 31.296-8.99 44.272-.395 8.095 5.362 11.495 12.232 22.702 25.988 1.994 2.436 18.493 27.913 45.045 32.986 26.905 5.149 57.856-8.39 58.5-8.087z"/></g><path d="M39.749 64.337a42.75 42.75 0 0 0-.243 11.907c2.225 18.339 16.309 33.754 35.458 36.84 23.179 3.736 45.01-12.026 48.748-35.215 2.7-16.753-4.791-32.802-17.894-41.821a42.33 42.33 0 0 0-17.321-6.926c-23.19-3.737-45.011 12.027-48.748 35.215z" fill="#ffbe9d"/><path d="M39.749 64.337a42.75 42.75 0 0 0-.243 11.907 47.43 47.43 0 0 0 11.56 3.407c25.813 4.16 50.096-13.391 54.255-39.193.238-1.475.405-2.952.497-4.41a42.33 42.33 0 0 0-17.321-6.926c-23.19-3.737-45.011 12.027-48.748 35.215z"/><circle cx="37.017" cy="24.548" r="24.547"/><path d="M123.57 274.068c-36.406-6.476-66.533-28.131-89.545-64.362l.844-.536c22.856 35.985 52.758 57.489 88.876 63.914zm38-84.449c-16.897 0-23.627-5.03-41.148-18.118l.599-.801c24.338 18.182 27.466 20.517 64.803 15.967l.121.993c-10.285 1.253-18.045 1.959-24.375 1.959z"/><path d="M149.804 345.066c-15.976-7.395-31.998-12.875-47.623-16.286l.213-.977c15.696 3.427 31.788 8.93 47.83 16.355z" fill="#fff"/></svg></g></svg>